<?xml version="1.0" encoding="UTF-8" standalone="no"?>
<svg
   version="1.1"
   id="Layer_1"
   x="0px"
   y="0px"
   width="1850.5729"
   viewBox="0 0 1850.5729 634.29822"
   enable-background="new 0 0 3808 551"
   xml:space="preserve"
   height="634.29822"
   xmlns="http://www.w3.org/2000/svg"
   xmlns:svg="http://www.w3.org/2000/svg"><defs
   id="defs23" />

<path
   fill="#004683"
   opacity="1"
   stroke="none"
   d="m 1090.0221,464.98025 c -44.0022,6.8129 -87.8421,9.32526 -131.87915,7.84497 -48.68506,-1.63656 -96.90381,-6.70038 -143.8263,-20.78607 -31.72076,-9.52231 -60.33502,-24.57422 -84.50183,-47.37952 -25.59112,-24.14932 -40.05548,-53.1857 -39.93793,-89.2351 0.33423,-102.49321 0.11731,-204.98822 0.11731,-307.4825252 0,-1.991551 0,-3.983101 0,-6.355576 60.29816,0 120.35553,0 181.16358,0 0,2.568802 0.0218,5.322094 -0.003,8.074955 -0.38269,41.9790272 -0.8117,83.9576722 -1.1485,125.9370662 -0.37957,47.30963 -0.70965,94.61975 -0.99279,141.93008 -0.0946,15.80289 -0.73029,31.65131 0.19622,47.40155 2.00263,34.04221 25.84461,57.89566 60.0257,58.8865 34.29431,0.99411 68.69655,1.44605 102.94719,-0.13 33.9037,-1.56009 58.7905,-22.36673 60.3136,-63.32877 0.8591,-23.10888 -0.02,-46.28408 -0.1859,-69.42889 -0.164,-22.82147 -0.4081,-45.6424 -0.6322,-68.46342 -0.3256,-33.14779 -0.8535,-66.29511 -0.9091,-99.443294 -0.024,-14.09617 -0.694,-28.488851 1.8008,-42.225377 4.2706,-23.51582 25.7919,-39.5921862 49.6837,-39.5921942 94.3281,-1.5e-5 188.6571,-0.24322503 282.9837,0.152527 27.2669,0.114399 52.0383,8.8263552 70.8588,29.3605652 12.5779,13.722939 23.5091,28.955643 35.17,43.518529 13.7407,17.16037 27.4738,34.326784 41.5153,51.871804 9.587,-9.99335 19.0225,-19.81581 28.4439,-29.651744 29.3794,-30.67221 58.7776,-61.326472 88.0873,-92.0649362 2.5884,-2.71447 5.212,-3.93218203 9.0763,-3.92019703 45.497,0.141079 90.9947,0.09062 136.4922,0.09063 1.6524,0 3.3049,4e-6 6.4212,4e-6 C 1776.7251,71.31535 1712.9679,141.17036 1649.0571,211.19371 c 67.109,82.22142 134.0505,164.23759 201.5161,246.89586 -2.0548,0.18533 -3.4137,0.4147 -4.7726,0.41506 -66.1629,0.0175 -132.326,-0.007 -198.4889,0.0851 -3.1687,0.004 -5.1558,-1.04056 -7.1433,-3.42319 -35.0951,-42.07864 -70.2739,-84.08752 -105.8003,-126.54852 -7.4206,7.7933 -14.7442,15.42544 -22.0035,23.11838 -32.7988,34.75891 -65.5597,69.5538 -98.4401,104.23538 -1.3004,1.37164 -3.6765,2.43911 -5.5543,2.44348 -54.6633,0.1272 -109.327,0.10168 -163.9906,0.0881 -0.6236,-1.5e-4 -1.2473,-0.16556 -2.9458,-0.40603 73.142,-71.98102 145.7152,-143.40229 218.6184,-215.14835 -7.3697,-8.79102 -14.5797,-17.42374 -21.8241,-26.02736 -43.8779,-52.11021 -87.6614,-104.3008 -131.8099,-156.18077 -4.254,-4.999153 -10.4335,-8.741081 -16.3632,-11.830101 -6.4212,-3.34494 -12.3636,-1.019546 -14.5175,5.83384 -2.2068,7.021271 -3.7013,14.584771 -3.7392,21.920091 -0.3699,71.6522 -0.3303,143.30642 -0.5085,214.95984 -0.034,13.48214 0.2617,27.0339 -0.9597,40.42911 -2.1578,23.66512 -12.7059,43.92904 -28.2583,61.54742 -24.1935,27.40741 -54.3733,45.86532 -89.1412,56.27624 -20.4895,6.13541 -41.628,10.10236 -62.9082,15.103 z"
   id="path2" />
<path
   fill="#004683"
   opacity="1"
   stroke="none"
   d="m 152.01923,424.86013 c -5.48479,10.30436 -10.70363,20.33652 -16.27651,30.16794 -0.91592,1.61588 -3.38304,3.33875 -5.14074,3.34662 -41.330882,0.18552 -82.662794,0.14337 -123.994512,0.13016 -0.817791,-2.5e-4 -1.635529,-0.15424 -3.254387,-0.31714 1.034905,-2.06128 1.840721,-3.78931 2.750466,-5.46078 C 66.667088,341.45498 127.24388,230.19021 187.80583,118.91741 c 11.44439,-21.027194 22.72306,-42.145324 34.28069,-63.109885 9.94254,-18.03492 22.53928,-33.789379 40.41519,-44.672329 14.06125,-8.5605432 29.18103,-12.3599242 45.76572,-10.78838723 8.09546,0.76710903 16.31869,0.20797 24.4841,0.211014 27.9989,0.01044 56.00873,0.48963903 83.99353,-0.13868 25.68957,-0.576782 45.90686,9.82450523 60.40069,30.01988223 9.82074,13.683991 17.41968,29.03418 25.35657,43.987211 66.9491,126.131274 133.74774,252.342404 200.58154,378.534914 0.831,1.56903 1.5293,3.20837 2.64161,5.55883 -2.48029,0 -4.25104,3e-5 -6.02179,3e-5 -57.16443,0 -114.32904,-0.0435 -171.49311,0.096 -3.88342,0.009 -5.85278,-1.12689 -7.60998,-4.6138 -11.36884,-22.5599 -23.04621,-44.96417 -34.47772,-67.49289 -1.45819,-2.87371 -3.03046,-4.07782 -6.42463,-4.07428 -100.32934,0.10486 -200.65878,0.0989 -300.98817,0.0203 -3.11223,-0.002 -4.68378,1.04749 -6.10753,3.78564 -6.67245,12.83243 -13.59944,25.53254 -20.58331,38.61911 M 369.53006,160.11656 c -5.91235,-11.53253 -11.76916,-23.09403 -17.75848,-34.58644 -3.45032,-6.6205 -6.70035,-13.40282 -10.79706,-19.61325 -4.29294,-6.507954 -9.68469,-6.980664 -14.85678,-1.20807 -4.39093,4.90077 -8.31296,10.43104 -11.43634,16.22516 -26.09528,48.40887 -51.95987,96.94207 -77.88761,145.44122 -3.2608,6.09949 -6.48446,12.21884 -9.80413,18.47757 69.05722,0 137.55282,0 206.74014,0 -21.45783,-41.74076 -42.6283,-82.92264 -64.19974,-124.73619 z"
   id="path3" />
<path
   fill="#024784"
   opacity="1"
   stroke="none"
   d="m 307.15711,585.19668 c -7.98438,-13.48633 -20.20801,-15.4668 -34.31104,-13.61508 0,19.71851 0,39.47632 0,59.65723 -9.90967,0 -19.45801,0 -29.33496,0 0,-48.09549 0,-96.27552 0,-144.94767 2.73731,0 5.35523,-0.0258 7.9729,0.004 24.13721,0.27509 48.28589,0.20395 72.40772,0.96958 15.50952,0.49221 28.22192,6.82553 34.5061,22.01327 6.12183,14.79685 5.47168,29.32855 -4.13794,42.64395 -6.9939,9.69101 -17.52515,13.29206 -29.45142,15.58426 24.08179,15.44931 33.15992,41.71811 49.75904,64.15875 -8.59546,0 -15.91944,-0.70639 -23.04785,0.17258 -9.66431,1.19168 -15.3667,-2.31735 -20.25782,-10.72668 -7.17407,-12.33463 -15.86499,-23.78702 -24.10473,-35.91422 m 17.79223,-41.63248 c 6.80933,-5.33459 7.81275,-12.58581 5.9126,-20.25363 -1.74365,-7.03659 -7.05664,-11.26272 -14.08325,-11.50177 -14.573,-0.49569 -29.17456,-0.14962 -43.64844,-0.14962 0,11.8959 0,23.77468 0,35.66177 11.03784,0 21.6853,0.38653 32.28687,-0.1452 6.34228,-0.31815 12.6123,-2.07358 19.53222,-3.61155 z"
   id="path4" />
<path
   fill="#024784"
   opacity="1"
   stroke="none"
   d="m 1782.8661,587.4978 c -1.6162,-2.15009 -3.0644,-3.97852 -4.4096,-5.88007 -5.1233,-7.24316 -12.2317,-10.47763 -20.9641,-10.48178 -3.4627,-0.002 -6.9253,-2.7e-4 -10.743,-2.7e-4 0,20.23834 0,40.00296 0,60.14645 -9.9091,0 -19.4609,0 -29.2898,0 0,-48.0903 0,-96.15948 0,-144.39154 0.2901,-0.13828 0.7178,-0.52216 1.1416,-0.51834 26.4671,0.23611 52.9446,0.14163 79.397,0.90668 15.5108,0.44857 28.1968,6.88842 34.4426,22.09143 6.0848,14.81094 5.3985,29.337 -4.2326,42.63012 -6.9905,9.64826 -17.534,13.19828 -29.8699,15.62506 12.8574,7.26908 20.8411,17.99619 28.0383,29.42402 7.0635,11.21576 14.0821,22.4599 21.6668,34.56359 -11.9917,0 -23.0698,0.0988 -34.1404,-0.14328 -1.1897,-0.026 -2.5879,-1.8641 -3.4636,-3.15124 -9.1692,-13.47696 -18.2517,-27.01297 -27.5733,-40.82083 m -3.219,-40.1929 c 3.6429,-0.21534 7.335,-0.1254 10.919,-0.70429 9.9814,-1.61215 15.2182,-7.94482 15.0859,-17.79672 -0.1308,-9.74109 -5.655,-16.6525 -15.7326,-17.17059 -14.2173,-0.73096 -28.5005,-0.18509 -42.8687,-0.18509 0,11.98874 0,23.84268 0,35.92831 10.7534,0 21.1804,0 32.5964,-0.0716 z"
   id="path5" />
<path
   fill="#024784"
   opacity="1"
   stroke="none"
   d="m 857.9989,631.6632 c -6.3059,-3e-5 -12.14819,-0.22693 -17.96167,0.085 -3.50488,0.18808 -5.30517,-1.19663 -7.07031,-4.07316 -17.48096,-28.48791 -35.11206,-56.88391 -52.70117,-85.3056 -0.74878,-1.20987 -1.50415,-2.41565 -2.93994,-4.72034 0,31.99061 0,62.69605 0,93.70682 -9.28076,0 -18.17554,0 -27.36987,0 0,-48.25613 0,-96.31231 0,-145.05362 9.01904,0 17.93798,-0.1398 26.84252,0.15293 1.31397,0.0432 2.92237,1.91174 3.78467,3.31131 17.79419,28.87783 35.49951,57.81039 53.22461,86.73065 0.91553,1.49383 1.85449,2.97308 3.75342,4.24756 0,-31.31406 0,-62.62809 0,-94.19376 9.37085,0 18.10791,0 27.15698,0 0,48.2323 0,96.30063 0,145.11231 -2.03882,0 -4.14111,0 -6.71924,-1.3e-4 z"
   id="path6" />
<path
   fill="#014783"
   opacity="1"
   stroke="none"
   d="m 1551.3554,496.16571 c 0,45.28466 0,90.07562 0,135.45669 -9.5884,0 -18.8672,0.16736 -28.1267,-0.18152 -1.3789,-0.0519 -2.9727,-2.34265 -3.9507,-3.91818 -17.5393,-28.25351 -34.9963,-56.55795 -52.4819,-84.84479 -0.8313,-1.34478 -1.7593,-2.62994 -3.3704,-5.02633 0,32.00488 0,62.70605 0,93.70651 -9.1511,0 -17.8994,0 -26.9436,0 0,-48.25839 0,-96.44034 0,-145.0585 8.9949,0 17.7878,-0.16458 26.5615,0.16781 1.4041,0.0532 3.0952,2.10242 4.0276,3.61496 17.8804,29.0167 35.6653,58.09229 53.48,87.14963 0.8408,1.37115 1.7764,2.68414 3.3213,5.00638 0,-32.51489 0,-63.87143 0,-95.5849 9.2676,0 18.1357,0 27.4829,0 0,3.1047 0,6.06161 0,9.51224 z"
   id="path7" />
<path
   fill="#024884"
   opacity="1"
   stroke="none"
   d="m 1387.3515,620.31317 c -30.7593,21.90167 -76.0193,17.5542 -98.8924,-9.36634 -10.0734,-11.85641 -14.5378,-26.00647 -15.6818,-41.25814 -1.4002,-18.66733 -0.1678,-37.00748 9.5346,-53.66724 11.7207,-20.12497 29.5657,-30.46472 52.6826,-31.88525 13.7752,-0.84647 27.3084,0.18386 40.0196,6.15478 18.323,8.60693 29.8596,23.03354 34.9836,42.4129 4.6367,17.53666 4.5403,35.28272 0,52.84464 -3.594,13.91629 -11.012,25.55643 -22.6509,34.76465 m -22.7005,-18.12012 c 7.137,-4.87607 11.9151,-11.55246 14.5013,-19.71176 4.6379,-14.63046 4.8059,-29.49188 1.0937,-44.2876 -4.5505,-18.13843 -18.1799,-28.82938 -36.3135,-29.05893 -19.2463,-0.24359 -33.5463,10.06592 -38.5031,28.36246 -3.7632,13.89001 -3.878,28.01541 -0.074,41.91861 7.2302,26.42489 35.1753,37.36539 59.2956,22.77722 z"
   id="path8" />
<path
   fill="#014784"
   opacity="1"
   stroke="none"
   d="m 936.18933,486.2929 c 9.80909,0.2338 19.13501,0.19208 28.42383,0.75656 21.749,1.32154 37.11744,12.62314 45.29544,32.3079 10.4097,25.05594 10.7246,50.93036 1.2539,76.42492 -7.4624,20.08841 -22.19334,32.78937 -43.69654,34.42411 -23.64186,1.79736 -47.44899,1.42221 -71.48268,2.00076 0,-49.21472 0,-97.38828 0,-145.91425 13.44946,0 26.57788,0 40.20605,0 m -11,68.33893 c 0,17.39063 0,34.78125 0,51.60373 12.11158,0 23.43677,0.4957 34.69898,-0.13641 11.75485,-0.65979 19.93795,-6.89557 23.31295,-18.50107 5.1797,-17.80982 5.3262,-35.83566 0.8238,-53.71372 -2.7293,-10.83612 -9.4031,-19.30447 -21.00492,-20.90701 -12.38501,-1.71075 -25.0017,-1.74643 -37.83081,-2.53256 0,15.2565 0,29.22177 0,44.18704 z"
   id="path9" />
<path
   fill="#024784"
   opacity="1"
   stroke="none"
   d="m 724.28113,583.09722 c -8.8772,35.90802 -38.57275,54.07081 -76.15796,50.55774 -25.52588,-2.38589 -45.31738,-14.02801 -55.24512,-38.1473 -10.37353,-25.20166 -10.23828,-51.17075 1.4773,-76.02759 9.3335,-19.80313 25.52441,-31.50666 47.521,-34.53955 15.40185,-2.12363 30.66625,-1.69666 45.08691,4.62042 24.28393,10.6376 36.01172,30.39835 39.1853,55.9483 1.55029,12.48075 1.06787,24.89459 -1.86743,37.58798 m -40.27222,14.3505 c 5.50537,-5.85846 8.72754,-12.85159 10.4524,-20.64475 2.51757,-11.37524 2.53833,-22.80114 0.57202,-34.21127 -3.42969,-19.90436 -17.24268,-32.68198 -35.86573,-33.45056 -20.63793,-0.85181 -35.66748,10.216 -40.58886,30.22037 -2.56787,10.43728 -2.90991,21.06958 -1.32276,31.71386 2.40625,16.13919 9.33374,29.40958 25.55103,35.13312 14.87744,5.2507 28.85107,2.94956 41.2019,-8.76077 z"
   id="path10" />
<path
   fill="#014783"
   opacity="1"
   stroke="none"
   d="m 1584.6198,631.65185 c -1.1169,-1.5672 -2.3411,-3.12573 -2.3467,-4.68869 -0.112,-31.31714 -0.084,-62.63473 -0.084,-93.95224 0,-15.32071 0,-30.64142 0,-46.33914 35.8694,0 71.5561,0 107.541,0 0,7.97827 0,15.8883 0,24.37253 -25.8794,0 -51.7578,0 -77.7774,0 0,10.83221 0,21.09292 0,31.86114 24.1258,0 48.0242,0 72.1595,0 0,8.42056 0,16.3331 0,24.61853 -23.9566,0 -47.7346,0 -71.9527,0 0,13.21466 0,26.06528 0,39.33795 26.6951,0 53.2923,0 80.222,0 0,8.30634 0,16.20243 0,24.79648 -35.8108,0 -71.5564,0 -107.762,-0.007 z"
   id="path11" />
<path
   fill="#024784"
   opacity="1"
   stroke="none"
   d="m 111.34436,545.28167 c -23.841312,27.62024 -47.502807,54.927 -71.045044,82.33612 -2.469604,2.87519 -4.954834,4.26111 -8.88269,4.14591 C 21.28894,631.46664 11.146851,631.6642 0,631.6642 2.473633,628.5356 4.403076,625.99388 6.436645,623.53847 43.29187,579.03386 80.180908,534.55724 116.9718,489.99953 c 2.21216,-2.67932 4.43262,-3.91333 7.97803,-3.79294 7.97998,0.2709 15.97559,0.085 24.36768,0.085 0,48.42438 0,96.61289 0,145.0875 -9.20484,0 -18.28174,0 -27.85694,0 0,-32.22565 0,-64.2641 0,-97.74228 -3.91247,4.48874 -6.90722,7.92477 -10.11621,11.6448 z"
   id="path12" />
<path
   fill="#024884"
   opacity="1"
   stroke="none"
   d="m 561.90418,513.50717 c 1.73706,4.31363 3.29809,8.29504 5.10205,12.897 -10.13111,2.43927 -19.57715,4.71353 -28.85889,6.94827 -0.4668,-0.50284 -0.79077,-0.69879 -0.88257,-0.97268 -5.42285,-16.18494 -16.13916,-23.88144 -32.38672,-23.23798 -15.42993,0.61105 -27.74438,10.93423 -31.51635,27.25406 -3.69434,15.98331 -3.51075,32.09112 0.92041,47.94452 4.10571,14.68854 16.02392,23.92602 30.57299,24.25744 15.08008,0.34351 25.81495,-7.33337 31.18824,-22.362 0.94214,-2.6347 1.71045,-5.33145 2.63769,-8.24697 9.5232,3.02588 18.823,5.98086 28.08423,8.92349 -5.66528,29.64078 -29.59961,48.00995 -61.09888,47.17584 -35.31445,-0.93518 -61.37597,-25.70941 -64.48681,-61.05582 -1.37183,-15.58685 -0.75196,-30.97021 4.27392,-45.87133 9.75733,-28.92929 34.86524,-44.84748 68.33521,-43.05228 20.98218,1.12537 37.79248,9.75946 48.11548,29.39844 z"
   id="path13" />
<path
   fill="#014784"
   opacity="1"
   stroke="none"
   d="m 1160.3564,566.13189 c 0,21.98267 0,43.46537 0,65.23786 -9.7696,0 -19.1983,0 -29.1831,0 0,-39.93268 0,-79.81064 0,-120.19403 -14.6094,0 -28.677,0 -42.9427,0 0,-8.43509 0,-16.36173 0,-24.58558 38.2466,0 76.3277,0 114.7674,0 0,7.92899 0,15.84894 0,24.27051 -13.8199,0 -27.8872,0 -42.6416,0 0,18.5838 0,36.67749 0,55.27124 z"
   id="path14" />
<path
   fill="#004683"
   opacity="1"
   stroke="none"
   d="m 1226.3569,486.29541 c 8.2675,0 16.0522,0 24.0583,0 0,48.60376 0,96.65029 0,145.00625 -9.6721,0 -19.0994,0 -28.8777,0 0,-48.07556 0,-96.25732 0,-144.76541 1.4441,-0.0802 2.8902,-0.16055 4.8194,-0.24084 z"
   id="path15" />
<path
   fill="#004683"
   opacity="1"
   stroke="none"
   d="m 1041.1894,501.13702 c 0,-5.12051 0,-9.74204 0,-14.59711 9.8657,0 19.2795,0 29.0869,0 0,48.14383 0,96.168 0,144.63214 -9.3943,0 -18.9526,0 -29.0869,0 0,-43.0397 0,-86.28787 0,-130.03503 z"
   id="path16" />
<path
   fill="#004683"
   opacity="1"
   stroke="none"
   d="m 208.17371,631.61132 c -7.49219,10e-5 -14.48389,10e-5 -21.81201,10e-5 0,-48.44349 0,-96.65488 0,-145.08201 9.63281,0 19.04663,0 28.72656,0 0,48.31189 0,96.39017 0,145.08179 -2.21802,0 -4.31592,0 -6.91455,1.2e-4 z"
   id="path17" />






</svg>
